# xmcd
#
# Track frame offsets: 
#        150
#        15626
#        36039
#        47436
#        71968
#        90687
#        109192
#        124232
#        152473
#        169122
#        189693
#        213242
#        226691
#        247338
#        266437
#        292412
#
# Disc length: 4116 seconds
#
# Revision: 0
# Processed by: cddbd v1.5.2PL0 Copyright (c) Steve Scherf et al.
# Submitted via: ExactAudioCopy v0.99pb1
#
DISCID=e5101210
DTITLE=Various Artist - Maximum Mojo.ten Years Of The Best In Blues.M
DTITLE=usic From Electro-Fi Records.Disc 2
DYEAR=2007
DGENRE=Blues
TTITLE0=Blackberry Wine - Kenny Wayne
TTITLE1=Juke Joint - Paul Oscher
TTITLE2=High Country Blues - Harrison Kennedy
TTITLE3=Blues 2.0 - Fruteland Jackson
TTITLE4=Big Easy (Ain't Easy No More) - Mark Hummel
TTITLE5=Going Away Baby - Willie 'Big Eyes' Smith
TTITLE6=I'm Here To Stay - Sharrie Williams
TTITLE7=Pinetop's Grinderman Blues - Pinetop Perkins
TTITLE8=Ain't That Loving You Baby - Johnny Laws
TTITLE9=Make Love To Your Mind - Mel Brown
TTITLE10=Cobalt - Julian Fauth
TTITLE11=Morning Sun - Diana Braithwaite
TTITLE12=Blues Over Baghdad - Fruteland Jackson
TTITLE13=Morning, Noon And Night - Chris Whiteley
TTITLE14=Sweet Little Woman From Maine - Sam Myers
TTITLE15=Work 'Til My Days Are Done - Snooky Pryor
EXTD=
EXTT0=
EXTT1=
EXTT2=
EXTT3=
EXTT4=
EXTT5=
EXTT6=
EXTT7=
EXTT8=
EXTT9=
EXTT10=
EXTT11=
EXTT12=
EXTT13=
EXTT14=
EXTT15=
PLAYORDER=
